<?xml version="1.0" encoding="UTF-8"?><svg id="a" xmlns="http://www.w3.org/2000/svg" viewBox="0 0 532.01 210"><defs><style>.b{fill:#fff;}</style></defs><path class="b" d="M106.79,160.47v6.66c0,6.28-3.37,9.61-9.76,9.61h-10.7s0,13.16,0,13.16h-10.92s-.03-39.02-.03-39.02h21.61c6.39-.02,9.77,3.31,9.78,9.59ZM95.88,162.27c0-1.58-.55-2.13-2.18-2.13h-7.37s0,7.32,0,7.32h7.37c1.64,0,2.18-.55,2.18-2.14v-3.06Z"/><path class="b" d="M132.13,176.5h-3.77s0,13.38,0,13.38h-10.92s-.03-39.02-.03-39.02h21.78c6.39-.02,9.77,3.31,9.78,9.59v6.44c0,4.37-1.63,7.31-4.79,8.68l9.34,14.29h-12.72s-8.69-13.36-8.69-13.36ZM128.36,167.22h7.53c1.64,0,2.18-.55,2.18-2.13v-2.84c0-1.58-.55-2.13-2.19-2.13h-7.53s0,7.1,0,7.1Z"/><path class="b" d="M174.81,160.09v5.18s14.63,0,14.63,0v9.28s-14.62,0-14.62,0v6s16.92-.01,16.92-.01v9.28s-27.83.02-27.83.02l-.03-39.03,27.84-.02v9.28s-16.91.01-16.91.01Z"/><path class="b" d="M218.44,176.44h-3.77s0,13.38,0,13.38h-10.92s-.03-39.02-.03-39.02h21.78c6.39-.02,9.77,3.31,9.78,9.59v6.44c0,4.37-1.63,7.31-4.79,8.68l9.34,14.29h-12.72s-8.69-13.36-8.69-13.36ZM214.66,167.16h7.53c1.64,0,2.18-.55,2.18-2.13v-2.84c0-1.58-.55-2.13-2.19-2.13h-7.53s0,7.1,0,7.1Z"/><path class="b" d="M279.96,180.71c0,6.28-3.38,9.61-9.76,9.61h-12.39c-6.39.01-9.77-3.31-9.78-9.59l-.02-29.96h10.92s.02,28.16.02,28.16c0,1.58.55,2.13,2.19,2.13h5.73c1.64,0,2.18-.55,2.18-2.13l-.02-28.16h10.92s.02,29.96.02,29.96Z"/><path class="b" d="M326.66,150.71l.03,39.03h-10.53s-12.68-20.83-12.68-20.83v20.85s-10.9,0-10.9,0l-.03-39.03h10.53s12.68,20.83,12.68,20.83v-20.85s10.9,0,10.9,0Z"/><path class="b" d="M373.39,150.68l.03,39.03h-10.53s-12.68-20.83-12.68-20.83v20.85s-10.9,0-10.9,0l-.03-39.03h10.53s12.68,20.83,12.68,20.83v-20.85s10.9,0,10.9,0Z"/><path class="b" d="M397.04,159.94v5.18s14.63,0,14.63,0v9.28s-14.62,0-14.62,0v6s16.92-.01,16.92-.01v9.28s-27.83.02-27.83.02l-.03-39.03,27.84-.02v9.28s-16.91.01-16.91.01Z"/><path class="b" d="M440.66,176.29h-3.77s0,13.37,0,13.37h-10.92s-.03-39.02-.03-39.02h21.78c6.39-.02,9.77,3.31,9.78,9.58v6.44c0,4.37-1.63,7.31-4.79,8.68l9.34,14.29h-12.72s-8.69-13.36-8.69-13.36ZM436.89,167.01h7.53c1.64,0,2.18-.55,2.18-2.13v-2.84c0-1.58-.55-2.13-2.19-2.13h-7.53s0,7.1,0,7.1Z"/><path class="b" d="M112.45,41.27c0,2.96.87,5.61,2.59,7.94,1.73,2.33,4.01,4.5,6.86,6.49,2.85,1.99,6.07,3.89,9.68,5.68,3.61,1.79,7.3,3.64,11.09,5.54,3.79,1.91,7.48,3.94,11.09,6.12,3.61,2.17,6.83,4.63,9.68,7.36,2.85,2.73,5.13,5.83,6.86,9.28,1.73,3.45,2.59,7.4,2.6,11.84,0,4.04-.64,7.75-1.94,11.13-1.3,3.39-3.08,6.43-5.34,9.12-2.26,2.69-4.94,5.07-8.03,7.14-3.09,2.06-6.43,3.77-10.01,5.12-3.58,1.35-7.35,2.37-11.29,3.07-3.94.7-7.91,1.05-11.89,1.05-5.6,0-11.05-.68-16.33-2.04-5.29-1.37-9.99-3.42-14.12-6.18-4.12-2.76-7.43-6.21-9.92-10.35-2.49-4.15-3.74-9-3.74-14.56,0-2.87.46-5.39,1.37-7.57.92-2.17,2.06-3.99,3.42-5.45,1.37-1.46,2.85-2.56,4.47-3.3s3.11-1.11,4.5-1.11c1.43,0,2.63.39,3.6,1.17.96.79,1.45,2.01,1.45,3.67,0,.76-.09,1.57-.27,2.42-.18.85-.37,1.78-.57,2.79-.2,1.01-.39,2.12-.57,3.33-.18,1.21-.27,2.54-.27,3.97,0,3.14.72,5.85,2.16,8.14,1.43,2.29,3.34,4.17,5.72,5.65,2.38,1.48,5.11,2.58,8.2,3.29s6.29,1.07,9.61,1.07c3.9,0,7.8-.48,11.69-1.42,3.9-.95,7.39-2.34,10.48-4.18s5.6-4.1,7.52-6.77c1.92-2.67,2.89-5.73,2.88-9.18,0-3.18-.87-6.03-2.59-8.54-1.73-2.51-4.01-4.83-6.86-6.96-2.85-2.13-6.08-4.13-9.72-6.01-3.63-1.88-7.33-3.79-11.09-5.71-3.77-1.92-7.46-3.95-11.09-6.08-3.63-2.13-6.87-4.47-9.72-7.02-2.85-2.55-5.13-5.41-6.86-8.57-1.73-3.16-2.59-6.76-2.59-10.8,0-3.77.9-7.48,2.71-11.14,1.81-3.66,4.54-6.93,8.19-9.83,3.65-2.9,8.21-5.24,13.67-7.04,5.46-1.8,11.87-2.7,19.22-2.7,4.66,0,9.22.69,13.68,2.08,4.46,1.39,8.44,3.36,11.93,5.91,3.5,2.55,6.31,5.6,8.44,9.14,2.13,3.54,3.2,7.46,3.2,11.77,0,2.56-.43,5.18-1.31,7.87-.87,2.69-2.27,5.5-4.19,8.41-1.88,2.83-3.93,4.93-6.15,6.29-2.22,1.37-4.22,2.06-6.01,2.06-1.34,0-2.44-.39-3.29-1.18-.85-.78-1.28-1.96-1.28-3.53,0-1.17.27-2.54.8-4.14.54-1.59,1.45-3.42,2.75-5.48,1.21-1.97,2.1-3.82,2.68-5.55.58-1.73.87-3.33.87-4.81,0-2.29-.62-4.29-1.85-6.02-1.23-1.72-2.94-3.17-5.11-4.33-2.17-1.17-4.78-2.04-7.83-2.62-3.05-.58-6.39-.87-10.01-.87-4.03,0-7.54.47-10.52,1.39-2.98.92-5.47,2.11-7.46,3.57-1.99,1.46-3.47,3.09-4.43,4.88-.96,1.8-1.44,3.57-1.44,5.32Z"/><path class="b" d="M227,79.07c1.3,2.6,2.28,5.35,2.93,8.24.65,2.89.98,5.66.98,8.31,0,2.65-.29,5.31-.87,8.01-.58,2.69-1.42,5.29-2.52,7.8-1.1,2.51-2.44,4.87-4.03,7.07-1.59,2.2-3.4,4.11-5.44,5.72-2.04,1.62-4.27,2.9-6.68,3.84-2.42.94-5,1.42-7.73,1.42-3.94,0-7.32-.86-10.12-2.58-2.8-1.72-5.1-3.98-6.89-6.76-1.79-2.78-3.11-5.92-3.94-9.42-.83-3.5-1.25-7.04-1.25-10.63,0-4.93.73-9.54,2.21-13.83,1.48-4.28,3.59-8.01,6.34-11.17,2.75-3.16,6.12-5.66,10.11-7.47,3.99-1.82,8.47-2.73,13.44-2.73,4.26,0,8.24.66,11.96,1.98,3.72,1.32,7.2,3.09,10.45,5.31,3.25,2.22,6.28,4.76,9.08,7.63,2.8,2.87,5.41,5.83,7.84,8.88l-1.27,9.49c-1.21-1.61-2.85-3.36-4.91-5.25-2.06-1.88-4.25-3.72-6.56-5.51-2.31-1.79-4.58-3.48-6.82-5.08-2.24-1.59-4.17-2.92-5.78-4l-.54.74ZM206.25,116.56c1.52,0,3-.78,4.43-2.32,1.43-1.55,2.69-3.5,3.76-5.86,1.07-2.35,1.93-4.96,2.58-7.81.65-2.85.97-5.57.97-8.17,0-2.06-.16-3.98-.47-5.75-.32-1.77-.79-3.31-1.42-4.61-.63-1.3-1.44-2.33-2.42-3.09-.99-.76-2.17-1.14-3.56-1.14-1.84,0-3.58.79-5.24,2.36-1.66,1.57-3.11,3.58-4.36,6.02-1.25,2.45-2.24,5.15-2.95,8.11-.72,2.96-1.07,5.81-1.07,8.54,0,1.88.18,3.66.54,5.31.36,1.66.92,3.11,1.68,4.34.76,1.23,1.77,2.22,3.03,2.96,1.25.74,2.76,1.11,4.5,1.11Z"/><path class="b" d="M354.5,106.63c-2.2.94-4.32,2.19-6.38,3.74-2.06,1.55-4.14,3.24-6.25,5.08-2.1,1.84-4.29,3.78-6.55,5.82-2.26,2.04-4.7,4.06-7.32,6.06-2.62,2-5.47,3.91-8.57,5.72-3.09,1.82-6.51,3.41-10.25,4.78-3.74,1.37-7.86,2.46-12.36,3.27s-9.49,1.22-14.95,1.22c-6.05,0-11.5-1.21-16.37-3.66-4.86-2.44-9.02-5.74-12.47-9.88-3.45-4.15-6.11-8.97-7.97-14.46-1.86-5.49-2.8-11.27-2.8-17.32,0-4.13.44-8.55,1.34-13.29.89-4.73,2.18-9.55,3.85-14.47,1.68-4.91,3.72-9.81,6.14-14.7,2.42-4.89,5.16-9.58,8.22-14.07,3.06-4.49,6.43-8.65,10.11-12.49,3.67-3.84,7.59-7.18,11.75-10.03,4.17-2.85,8.55-5.08,13.17-6.7,4.61-1.62,9.41-2.43,14.38-2.43,3.23,0,6.5.57,9.81,1.71,3.32,1.14,6.3,2.9,8.94,5.28,2.64,2.38,4.81,5.38,6.49,9.01,1.68,3.63,2.53,7.92,2.53,12.85,0,3.32-.52,6.67-1.57,10.06-1.05,3.39-2.49,6.64-4.33,9.76-1.83,3.12-3.99,6.05-6.48,8.78-2.49,2.74-5.16,5.11-8.03,7.1-2.87,2-5.84,3.58-8.93,4.75-3.09,1.17-6.18,1.75-9.27,1.76-4.08,0-7.12-.54-9.14-1.64-2.02-1.1-3.03-2.68-3.03-4.74,0-.36-.01-.78-.03-1.28-.02-.49-.03-1.01-.03-1.55,0-.81.04-1.65.13-2.52.09-.87.27-1.67.54-2.39s.66-1.3,1.18-1.75c.51-.45,1.22-.67,2.12-.67.54,0,1.01.08,1.41.23s.85.32,1.34.5c.49.18,1.09.35,1.78.5.7.16,1.58.23,2.66.23,2.87,0,5.77-.63,8.7-1.89,2.93-1.26,5.58-3.03,7.93-5.32,2.35-2.29,4.27-5.02,5.77-8.18,1.5-3.16,2.25-6.65,2.24-10.46,0-2.02-.27-3.94-.81-5.75-.54-1.82-1.41-3.41-2.62-4.78-1.21-1.37-2.77-2.46-4.67-3.29-1.91-.83-4.22-1.24-6.96-1.24-3.23,0-6.37.71-9.44,2.13-3.07,1.41-6.01,3.33-8.83,5.76s-5.5,5.3-8.03,8.62c-2.53,3.32-4.87,6.88-7.02,10.67-2.15,3.79-4.08,7.74-5.81,11.84-1.72,4.1-3.19,8.2-4.39,12.28-1.21,4.08-2.13,8.04-2.78,11.88-.65,3.84-.97,7.37-.97,10.6,0,4.62.58,8.64,1.72,12.08,1.14,3.43,2.77,6.29,4.88,8.57,2.11,2.29,4.68,3.99,7.73,5.11,3.05,1.12,6.47,1.68,10.28,1.67,4.75,0,9.17-.6,13.27-1.79,4.1-1.19,8.01-2.75,11.72-4.68,3.72-1.93,7.31-4.11,10.78-6.53,3.47-2.42,6.94-4.86,10.41-7.31,3.47-2.45,7.01-4.78,10.61-7,3.6-2.22,7.42-4.1,11.45-5.62v14.46Z"/><path class="b" d="M411.49,112.85c-1.03,1.44-2.41,3.12-4.13,5.05-1.72,1.93-3.66,3.77-5.81,5.52-2.15,1.75-4.46,3.23-6.92,4.44-2.46,1.21-4.93,1.82-7.39,1.82-2.96,0-5.42-.95-7.39-2.85-1.97-1.91-3.68-4.67-5.11-8.31-1.07,1.26-2.4,2.54-3.96,3.84-1.57,1.3-3.28,2.48-5.14,3.54-1.86,1.06-3.8,1.92-5.81,2.59s-4.03,1.01-6.05,1.01c-2.15,0-4.25-.43-6.29-1.31-2.04-.87-3.84-2.13-5.41-3.76-1.57-1.64-2.83-3.63-3.77-5.99-.94-2.35-1.42-5.01-1.42-7.97,0-3.36.47-6.82,1.4-10.36.94-3.54,2.24-7.01,3.89-10.4,1.65-3.39,3.61-6.58,5.87-9.59,2.26-3.01,4.73-5.63,7.42-7.88,2.69-2.24,5.52-4.03,8.5-5.35,2.98-1.32,6.01-1.99,9.11-1.99,1.03,0,1.84.2,2.42.6.58.4,1.06.86,1.45,1.38.38.52.75,1.02,1.11,1.51.36.49.81.85,1.34,1.08.54.23,1.09.37,1.65.44.56.07,1.13.1,1.71.1.49,0,1-.01,1.51-.04.51-.02,1.02-.03,1.51-.03.67,0,1.3.07,1.88.2.58.13,1.1.43,1.55.87.45.45.8,1.08,1.04,1.88.25.81.37,1.91.37,3.29,0,2.15-.22,4.54-.67,7.17-.45,2.62-.94,5.32-1.47,8.07s-1.03,5.52-1.47,8.28c-.45,2.76-.67,5.37-.67,7.84,0,2.11.19,3.76.57,4.95.38,1.19,1.2,1.78,2.46,1.78.94,0,1.92-.24,2.96-.71,1.03-.47,2.07-1.09,3.12-1.85,1.05-.76,2.1-1.63,3.16-2.59,1.05-.96,2.05-1.96,2.99-3,2.19-2.42,4.41-5.16,6.65-8.21l3.24,14.93ZM354.1,107.58c0,1.12.08,2.21.24,3.26.16,1.05.44,2,.84,2.83s.94,1.5,1.61,2.02c.67.51,1.52.77,2.55.77,1.66,0,3.16-.72,4.5-2.16s2.51-3.16,3.49-5.18c.98-2.02,1.78-4.1,2.38-6.26.6-2.15.99-3.95,1.17-5.38l4.09-19.78c-1.84,0-3.63.46-5.38,1.38-1.75.92-3.39,2.17-4.94,3.74-1.54,1.57-2.97,3.37-4.26,5.38s-2.42,4.14-3.36,6.36c-.94,2.22-1.67,4.45-2.18,6.7-.51,2.24-.77,4.35-.77,6.32Z"/><path class="b" d="M418.56,129.33c-2.42,0-4.67-1.06-6.76-3.19s-3.9-4.99-5.45-8.57c-1.55-3.59-2.76-7.75-3.64-12.48-.88-4.73-1.32-9.7-1.32-14.9,0-3.99.29-8.33.87-13.02.58-4.69,1.43-9.52,2.54-14.5,1.12-4.98,2.45-9.98,3.99-15.01,1.54-5.02,3.29-9.85,5.23-14.47,1.95-4.62,4.06-8.94,6.34-12.95,2.28-4.02,4.68-7.51,7.18-10.5,2.51-2.98,5.13-5.33,7.86-7.04,2.73-1.71,5.51-2.56,8.33-2.56,1.93,0,3.52.43,4.77,1.31,1.25.87,2.24,2.03,2.96,3.46.72,1.44,1.22,3.06,1.51,4.88.29,1.82.44,3.67.44,5.55,0,4.22-.48,8.51-1.44,12.88-.96,4.37-2.26,8.77-3.89,13.19-1.63,4.42-3.52,8.85-5.67,13.29s-4.39,8.85-6.71,13.22c-2.33,4.38-4.66,8.68-7.01,12.92-2.35,4.24-4.55,8.38-6.61,12.42-.22.45-.46,1.03-.71,1.75-.25.72-.48,1.49-.7,2.32s-.45,1.71-.67,2.66c-.22.94-.4,1.86-.54,2.76v.94c0,1.17.12,2.3.37,3.4.25,1.1.55,2.08.91,2.96.36.87.74,1.57,1.14,2.08.4.52.78.77,1.14.77.85,0,1.83-.18,2.92-.54,1.1-.36,2.26-.84,3.49-1.45,1.23-.61,2.5-1.3,3.79-2.09,1.3-.79,2.55-1.58,3.76-2.39,2.82-1.89,5.78-4.06,8.87-6.53l5.52,14.12c-3.99,2.87-7.93,5.43-11.82,7.68-1.7.94-3.46,1.88-5.27,2.79-1.81.92-3.64,1.74-5.48,2.46-1.84.72-3.63,1.29-5.38,1.72-1.75.43-3.38.64-4.91.64ZM418.59,75.51c2.01-3.59,4.15-7.63,6.41-12.11,2.26-4.49,4.4-9.11,6.41-13.86,2.01-4.75,3.76-9.5,5.23-14.23,1.48-4.73,2.41-9.14,2.81-13.22,0-1.3-.04-2.41-.1-3.33-.07-.92-.28-1.38-.64-1.38-1.3,0-2.7.84-4.2,2.53-1.5,1.68-3,3.96-4.5,6.83-1.5,2.87-2.93,6.21-4.29,10.03-1.36,3.81-2.58,7.87-3.65,12.18-1.07,4.31-1.92,8.74-2.55,13.29s-.93,8.98-.93,13.29Z"/><polygon class="b" points="30.32 107.89 25.27 82.96 0 80.06 22.15 67.55 17.1 42.62 35.84 59.82 57.99 47.31 47.42 70.45 66.16 87.66 40.89 84.75 30.32 107.89"/><polygon class="b" points="496.17 110.11 491.12 85.18 465.85 82.28 488 69.77 482.95 44.84 501.69 62.04 523.84 49.53 513.27 72.67 532.01 89.87 506.74 86.97 496.17 110.11"/></svg>